<svg width="154" height="27" viewBox="0 0 154 27" fill="none" xmlns="http://www.w3.org/2000/svg">
<path d="M88.31 12.0379L86.8479 10.3809C87.9689 9.16245 88.5537 7.70036 88.5537 5.99458C88.5537 4.2888 87.9689 2.87545 86.8479 1.75452C85.6783 0.584841 84.2649 0 82.6079 0C80.8046 0 79.3425 0.584829 78.2703 1.80324C77.1981 3.02165 76.6133 4.38628 76.6133 5.89712C76.6133 7.70036 77.1494 9.21119 78.2703 10.3809C79.3913 11.5505 80.8046 12.1354 82.5591 12.1354C83.3389 12.1354 84.2162 11.9404 85.2396 11.5993L86.5555 13.2076L88.31 12.0379ZM85.1909 8.33394L84.0212 6.96931L82.3642 8.04152L83.6313 9.50361C83.1927 9.55235 82.7541 9.60107 82.4129 9.60107C81.5357 9.60107 80.7559 9.25993 80.171 8.52888C79.5862 7.84657 79.2938 6.92058 79.2938 5.84838C79.2938 4.77617 79.5862 3.89892 80.2198 3.21661C80.8534 2.5343 81.6331 2.19314 82.6079 2.19314C83.5826 2.19314 84.4111 2.5343 84.9959 3.21661C85.5808 3.89892 85.8732 4.8249 85.8732 5.94584C85.8732 7.06678 85.6295 7.84657 85.1909 8.33394Z" fill="white"/>
<path d="M94.6954 12.0868C95.5727 12.0868 96.4012 11.8919 97.1322 11.502C97.8633 11.1121 98.3994 10.576 98.7405 9.84495C99.0817 9.1139 99.2766 8.4316 99.2766 7.74929V0.0976562H96.7911V7.21318C96.7911 7.94423 96.5961 8.52907 96.2062 8.9677C95.8163 9.35759 95.2802 9.60127 94.5979 9.60127C94.0131 9.60127 93.477 9.40633 93.1358 8.9677C92.7459 8.57781 92.5997 8.04171 92.5997 7.3594V0.0976562H90.0654V7.89549C90.0654 8.87022 90.4553 9.84496 91.1864 10.771C91.8687 11.6482 93.0384 12.0868 94.6954 12.0868Z" fill="white"/>
<path d="M104.15 9.60127H108.682L109.608 11.9406H112.191L107.366 0.0976562H105.368L100.641 11.9406H103.175L104.15 9.60127ZM106.392 3.99657L107.805 7.50561H104.978L106.392 3.99657Z" fill="white"/>
<path d="M116.188 0.0976562H113.653V11.9406H119.697V9.40632H116.188V0.0976562Z" fill="white"/>
<path d="M123.547 0.0976562H121.013V11.9406H123.547V0.0976562Z" fill="white"/>
<path d="M124.766 2.63196H127.446V11.9406H130.029V2.63196H132.71V0.0976562H124.766V2.63196Z" fill="white"/>
<path d="M137.534 11.9406H140.068V6.4334L143.821 0.0976562H140.994L138.752 3.80163L136.608 0.0976562H133.781L137.534 6.4334V11.9406Z" fill="white"/>
<path d="M82.9979 20.5185C82.608 20.2261 82.0231 19.9337 81.2433 19.6412C80.1711 19.2026 79.635 18.7152 79.635 18.1304C79.635 17.838 79.7325 17.5943 79.9274 17.3506C80.1224 17.1557 80.3661 17.0095 80.6585 17.0095C81.0484 17.0095 81.6332 17.2531 82.4617 17.7405L84.07 15.986C83.1928 15.1575 82.0719 14.7676 80.756 14.7676C79.635 14.7676 78.7578 15.1087 78.0755 15.7423C77.3932 16.3759 77.052 17.2531 77.052 18.3253C77.052 18.8127 77.1495 19.2513 77.3932 19.7387C77.5881 20.1773 77.8805 20.5185 78.1729 20.7622C78.4653 21.0059 79.0015 21.2495 79.7812 21.5419C81.0971 22.0293 81.7307 22.5654 81.7307 23.199C81.7307 23.4914 81.5845 23.7838 81.2921 24.0762C80.9997 24.3687 80.7072 24.4661 80.4148 24.4661C79.7812 24.4661 79.0502 24.0763 78.3191 23.2965L76.6621 25.2459C77.8805 26.4156 79.0502 27.0004 80.3173 27.0004C81.4383 27.0004 82.413 26.6105 83.2415 25.8795C84.0701 25.1485 84.4599 24.2225 84.4599 23.2477C84.4599 22.7116 84.3137 22.1755 84.07 21.6881C83.7289 21.152 83.3877 20.7622 82.9979 20.5185Z" fill="white"/>
<path d="M92.5996 22.0775C92.5996 22.8085 92.4047 23.3933 92.0148 23.832C91.6249 24.2218 91.0888 24.4655 90.4065 24.4655C89.8217 24.4655 89.3343 24.2706 88.9444 23.832C88.5545 23.4421 88.4083 22.906 88.4083 22.2237V14.9619H85.874V22.7597C85.874 23.7832 86.2639 24.7092 86.995 25.6352C87.726 26.5612 88.9444 26.9998 90.5527 26.9998C91.43 26.9998 92.2585 26.8049 92.9896 26.415C93.7206 26.0251 94.2567 25.489 94.5978 24.758C94.939 24.0269 95.134 23.3446 95.134 22.6623V15.0107H92.6484V22.0775H92.5996Z" fill="white"/>
<path d="M105.222 14.9619L103.029 22.0287L100.787 14.9619H97.7658L96.3037 26.7561H98.7893L99.764 18.3735L102.445 26.7561H103.614L106.197 18.4709L107.269 26.7561H109.658L108.147 14.9619H105.222Z" fill="white"/>
<path d="M114.969 14.9619H110.924V26.8049H113.458V22.2237L114.92 22.1749C115.408 22.1749 115.944 22.0287 116.626 21.6875C117.308 21.3951 117.796 20.9078 118.088 20.3229C118.429 19.7381 118.575 19.0558 118.575 18.3735C118.575 17.35 118.234 16.5215 117.552 15.8879C116.918 15.2543 116.041 14.9619 114.969 14.9619ZM115.505 19.6406C115.213 19.9331 114.823 20.0792 114.433 20.0792H113.458V17.0576L114.043 17.0089C114.677 17.0089 115.164 17.1551 115.505 17.3987C115.846 17.6424 116.041 18.0323 116.041 18.5197C115.944 18.9583 115.797 19.3482 115.505 19.6406Z" fill="white"/>
<path d="M127.251 20.3229C127.543 19.6894 127.738 19.0558 127.738 18.4222C127.738 17.35 127.397 16.5215 126.715 15.8879C126.033 15.2543 125.107 14.9619 123.888 14.9619H119.989V26.8049H122.524V22.2237H122.816L125.886 26.8049H128.811L125.496 21.8825C126.325 21.4926 126.91 20.9565 127.251 20.3229ZM123.108 20.128H122.572V17.0576H123.157C123.791 17.0576 124.229 17.2038 124.619 17.4475C124.96 17.6912 125.155 18.081 125.155 18.5197C125.107 19.5919 124.424 20.128 123.108 20.128Z" fill="white"/>
<path d="M132.515 14.9619H129.98V26.8049H132.515V14.9619Z" fill="white"/>
<path d="M142.067 22.5648L136.609 14.9619H134.123V26.7561H136.657V19.1045L142.067 26.7561H144.553V14.9619H142.067V22.5648Z" fill="white"/>
<path d="M145.771 14.9619V17.4475H148.451V26.7561H150.985V17.4475H153.715V14.9619H145.771Z" fill="white"/>
<path d="M59.9459 12.9639C59.2635 12.3791 58.3376 11.9892 57.1679 11.6968C56.0469 11.4043 54.6336 11.3069 52.9765 11.3069H42.3033C40.9874 11.3069 40.1101 11.0632 39.6715 10.6245C39.2329 10.1859 38.9892 9.40614 38.9892 8.33394C38.9892 7.26174 39.2329 6.53069 39.6715 6.09206C40.1101 5.65343 40.9874 5.40975 42.3033 5.40975H59.4098L61.6516 0.097464H42.3033C40.695 0.097464 39.3303 0.243685 38.2094 0.536104C37.0884 0.828523 36.2112 1.26714 35.5289 1.85198C34.8466 2.43682 34.3592 3.21661 34.1155 4.19134C33.8231 5.16607 33.6769 6.28701 33.6769 7.60289V8.48014C33.6769 9.69855 33.8231 10.7708 34.1155 11.648C34.4079 12.574 34.8953 13.3051 35.5289 13.8899C36.2112 14.4747 37.0397 14.9134 38.1119 15.2058C39.1841 15.4982 40.5487 15.6444 42.1083 15.6444H52.9278C54.2924 15.6444 55.2184 15.8393 55.7058 16.278C56.1932 16.7166 56.4368 17.4964 56.4368 18.6173C56.4368 19.2022 56.3881 19.6408 56.2419 20.0307C56.1444 20.4206 55.9495 20.713 55.6571 20.9567C55.3646 21.2003 54.7798 21.4928 54 21.4928C53.4152 21.4928 43.7166 21.4928 41.0849 21.4928C38.4531 21.4928 36.991 20.713 36.991 20.713L30.6065 17.5939V8.72382C30.6065 7.16426 30.4603 5.79964 30.1679 4.6787C29.8755 3.55777 29.3881 2.68051 28.7545 1.9982C28.0722 1.31589 27.2437 0.82852 26.1715 0.487365C25.0993 0.194946 23.7834 0 22.2726 0H8.33394C6.77437 0 5.45849 0.146209 4.43502 0.487365C3.36282 0.779783 2.5343 1.31589 1.85199 1.9982C1.16968 2.68051 0.731052 3.55777 0.438633 4.6787C0.146214 5.79964 0 7.11552 0 8.72382V18.13C0 19.7383 0.146214 21.0541 0.438633 22.1751C0.731052 23.296 0.974731 23.8809 1.6083 24.6119C2.24188 25.3429 2.77798 25.7329 3.80145 26.1227C4.87365 26.5126 6.77437 26.7563 8.2852 26.7563H23.3448C24.7581 26.7076 25.9278 26.5126 26.9025 26.1715C27.8773 25.8303 28.6083 25.343 29.1931 24.6607C29.4368 24.3682 29.6805 24.0271 29.8755 23.6372L24.6607 21.1516C24.6119 21.2004 24.6607 21.1516 24.6119 21.2003C24.1246 21.5415 23.3935 21.6877 22.4188 21.6877H8.33394C7.7491 21.6877 7.26173 21.639 6.82311 21.5415C6.43321 21.444 6.09206 21.2491 5.84838 21.0054C5.60469 20.7617 5.40975 20.4206 5.31228 19.9819C5.21481 19.5433 5.16607 19.0072 5.16607 18.3249V8.91877C5.16607 7.60288 5.40975 6.67689 5.84838 6.23826C6.33574 5.7509 7.11552 5.50722 8.2852 5.50722H22.3213C23.491 5.50722 24.3195 5.7509 24.7581 6.23826C25.2455 6.72563 25.4404 7.60288 25.4404 8.91877V15.2058L21.7365 13.4025C21.6877 14.2798 21.7852 18.3249 21.7365 19.2022L25.0018 20.713L30.0704 23.0524L35.9188 25.7816C35.9188 25.7816 38.1119 26.8538 40.4025 26.8538C42.6931 26.8538 53.9025 26.8538 54.9747 26.8538C58.3376 26.8538 59.2148 25.8303 59.8971 25.1967C60.5794 24.6119 61.0668 23.7834 61.408 22.8087C61.7004 21.8339 61.8953 20.6155 61.8953 19.2022V18.2762C61.8953 17.1065 61.7491 16.083 61.408 15.2058C61.1643 14.2798 60.6282 13.5487 59.9459 12.9639Z" fill="white"/>
<path d="M69.2056 1.36426H68.4258V25.4401H69.2056V1.36426Z" fill="white"/>
</svg>
