<svg width="62" height="27" viewBox="0 0 62 27" fill="none" xmlns="http://www.w3.org/2000/svg">
<path d="M59.9459 12.9639C59.2635 12.3791 58.3376 11.9892 57.1679 11.6968C56.0469 11.4043 54.6336 11.3069 52.9765 11.3069H42.3033C40.9874 11.3069 40.1101 11.0632 39.6715 10.6245C39.2329 10.1859 38.9892 9.40614 38.9892 8.33394C38.9892 7.26174 39.2329 6.53069 39.6715 6.09206C40.1101 5.65343 40.9874 5.40975 42.3033 5.40975H59.4098L61.6516 0.097464H42.3033C40.695 0.097464 39.3303 0.243685 38.2094 0.536104C37.0884 0.828523 36.2112 1.26714 35.5289 1.85198C34.8466 2.43682 34.3592 3.21661 34.1155 4.19134C33.8231 5.16607 33.6769 6.28701 33.6769 7.60289V8.48014C33.6769 9.69855 33.8231 10.7708 34.1155 11.648C34.4079 12.574 34.8953 13.3051 35.5289 13.8899C36.2112 14.4747 37.0397 14.9134 38.1119 15.2058C39.1841 15.4982 40.5487 15.6444 42.1083 15.6444H52.9278C54.2924 15.6444 55.2184 15.8393 55.7058 16.278C56.1932 16.7166 56.4368 17.4964 56.4368 18.6173C56.4368 19.2022 56.3881 19.6408 56.2419 20.0307C56.1444 20.4206 55.9495 20.713 55.6571 20.9567C55.3646 21.2003 54.7798 21.4928 54 21.4928C53.4152 21.4928 43.7166 21.4928 41.0849 21.4928C38.4531 21.4928 36.991 20.713 36.991 20.713L30.6065 17.5939V8.72382C30.6065 7.16426 30.4603 5.79964 30.1679 4.6787C29.8755 3.55777 29.3881 2.68051 28.7545 1.9982C28.0722 1.31589 27.2437 0.82852 26.1715 0.487365C25.0993 0.194946 23.7834 0 22.2726 0H8.33394C6.77437 0 5.45849 0.146209 4.43502 0.487365C3.36282 0.779783 2.5343 1.31589 1.85199 1.9982C1.16968 2.68051 0.731052 3.55777 0.438633 4.6787C0.146214 5.79964 0 7.11552 0 8.72382V18.13C0 19.7383 0.146214 21.0541 0.438633 22.1751C0.731052 23.296 0.974731 23.8809 1.6083 24.6119C2.24188 25.3429 2.77798 25.7329 3.80145 26.1227C4.87365 26.5126 6.77437 26.7563 8.2852 26.7563H23.3448C24.7581 26.7076 25.9278 26.5126 26.9025 26.1715C27.8773 25.8303 28.6083 25.343 29.1931 24.6607C29.4368 24.3682 29.6805 24.0271 29.8755 23.6372L24.6607 21.1516C24.6119 21.2004 24.6607 21.1516 24.6119 21.2003C24.1246 21.5415 23.3935 21.6877 22.4188 21.6877H8.33394C7.7491 21.6877 7.26173 21.639 6.82311 21.5415C6.43321 21.444 6.09206 21.2491 5.84838 21.0054C5.60469 20.7617 5.40975 20.4206 5.31228 19.9819C5.21481 19.5433 5.16607 19.0072 5.16607 18.3249V8.91877C5.16607 7.60288 5.40975 6.67689 5.84838 6.23826C6.33574 5.7509 7.11552 5.50722 8.2852 5.50722H22.3213C23.491 5.50722 24.3195 5.7509 24.7581 6.23826C25.2455 6.72563 25.4404 7.60288 25.4404 8.91877V15.2058L21.7365 13.4025C21.6877 14.2798 21.7852 18.3249 21.7365 19.2022L25.0018 20.713L30.0704 23.0524L35.9188 25.7816C35.9188 25.7816 38.1119 26.8538 40.4025 26.8538C42.6931 26.8538 53.9025 26.8538 54.9747 26.8538C58.3376 26.8538 59.2148 25.8303 59.8971 25.1967C60.5794 24.6119 61.0668 23.7834 61.408 22.8087C61.7004 21.8339 61.8953 20.6155 61.8953 19.2022V18.2762C61.8953 17.1065 61.7491 16.083 61.408 15.2058C61.1643 14.2798 60.6282 13.5487 59.9459 12.9639Z" fill="white"/>
</svg>
